<svg width="170" height="42" viewBox="0 0 170 42" fill="none" xmlns="http://www.w3.org/2000/svg">
<path d="M15.3657 22.2159H9.61598L12.7109 12.1578L15.3657 22.2159ZM6.63106 33.2693L8.62464 26.6373H16.3571L18.2406 33.2684H25.4248L18.2406 8.06955C18.1098 7.4157 17.7464 6.83143 17.2178 6.42496C16.6892 6.01849 16.0312 5.81737 15.3657 5.85886H5.19461V8.17959H6.07888C7.18422 8.17959 7.7364 8.62172 7.7364 9.39496C7.69239 10.1599 7.50508 10.9098 7.18423 11.6056L0 33.1583H6.63106V33.2693Z" fill="#003781"/>
<path d="M33.7094 33.2695V7.95867C33.7375 7.67599 33.7025 7.3906 33.6069 7.12308C33.5113 6.85557 33.3576 6.61261 33.1567 6.41174C32.9558 6.21087 32.7129 6.05709 32.4454 5.96151C32.1778 5.86593 31.8924 5.83092 31.6098 5.85902H25.3098V8.17975H25.752C26.8573 8.17975 27.2994 8.62188 27.2994 9.72722V33.1585H33.7094V33.2695Z" fill="#003781"/>
<path d="M44.6518 33.2695V7.95867C44.6799 7.67599 44.6449 7.3906 44.5493 7.12308C44.4537 6.85557 44.3 6.61261 44.0991 6.41174C43.8982 6.21087 43.6553 6.05709 43.3877 5.96151C43.1202 5.86593 42.8348 5.83092 42.5522 5.85902H36.2522V8.17975H36.6943C37.7997 8.17975 38.2418 8.62188 38.2418 9.72722V33.1585H44.6518V33.2695Z" fill="#003781"/>
<path d="M55.9254 8.40092C55.9254 6.51738 54.5989 5.41699 52.2782 5.41699C49.9575 5.41699 48.6311 6.52233 48.6311 8.40092C48.6311 10.2795 50.0675 11.3848 52.2782 11.3848C54.4889 11.3848 55.9254 10.2795 55.9254 8.40092ZM55.8153 33.2736V14.8119C55.8434 14.5292 55.8084 14.2438 55.7128 13.9763C55.6172 13.7088 55.4635 13.4658 55.2626 13.265C55.0617 13.0641 54.8188 12.9103 54.5513 12.8147C54.2837 12.7192 53.9983 12.6841 53.7157 12.7122H47.5258V15.144H47.8569C48.9622 15.144 49.4043 15.5861 49.4043 16.6915V33.2736H55.8153Z" fill="#003781"/>
<path d="M69.8516 23.4326V27.4118C68.9794 28.4199 67.7524 29.0533 66.4255 29.1804C65.3202 29.1804 64.878 28.6282 64.878 27.0807C64.878 25.5333 65.2091 24.8701 66.3145 24.4279C67.4203 23.877 68.6205 23.5407 69.8516 23.4366V23.4326ZM61.2269 18.5731C63.1941 17.6184 65.3412 17.091 67.5269 17.0256C69.2954 17.0256 69.8476 17.6888 69.8476 19.4574V19.8995C67.1948 20.3416 66.4215 20.4517 64.9841 20.7838C64.1538 20.9749 63.3405 21.2335 62.5524 21.557C60.0106 22.5483 58.7942 24.5409 58.7942 27.6359C58.7942 31.5021 60.4517 33.3857 63.9888 33.3857C65.1677 33.3992 66.3369 33.1704 67.4238 32.7135C68.4048 32.2236 69.331 31.6308 70.1866 30.945V31.2761C70.1556 31.5309 70.1829 31.7894 70.2666 32.0321C70.3502 32.2748 70.488 32.4952 70.6695 32.6767C70.8511 32.8582 71.0715 32.996 71.3142 33.0797C71.5568 33.1634 71.8154 33.1907 72.0702 33.1596H77.928V30.9489H77.5969C76.4915 30.9489 76.0494 30.5068 76.0494 29.1804V19.4534C76.0494 14.2588 74.2809 12.4902 69.0863 12.4902C67.4502 12.5039 65.8202 12.6889 64.2228 13.0424C62.6998 13.3375 61.2407 13.8986 59.9124 14.6999L61.2269 18.5731Z" fill="#003781"/>
<path d="M87.204 33.2683V19.342C87.6112 18.8148 88.129 18.3833 88.7209 18.0778C89.3128 17.7722 89.9645 17.6001 90.6301 17.5734C91.9565 17.5734 92.2876 18.1256 92.2876 20.1152V33.0472H98.6976V19.342C98.6976 16.137 98.4765 15.0316 97.4822 13.9263C96.9798 13.4218 96.374 13.0321 95.7066 12.7841C95.0392 12.5361 94.3259 12.4357 93.616 12.4898C91.0742 12.4898 89.3056 13.2631 86.9849 15.4738V14.7005C86.9849 13.3741 86.3217 12.817 84.9953 12.817H78.9144V15.1377H79.2455C80.3509 15.1377 80.793 15.5798 80.793 16.6852V33.2683H87.204Z" fill="#003781"/>
<path d="M117.599 28.9593H108.647L117.157 17.0226V12.8223H103.784C102.237 12.8223 101.573 13.4855 101.573 15.0329V18.7911H103.894V18.46C103.894 17.4687 104.336 17.0236 105.442 17.0236H110.087L101.462 29.0703V33.2706H117.599V28.9593Z" fill="#003781"/>
<path d="M151.193 32.7151V9.61697C151.193 7.73342 150.53 7.18522 148.761 7.18522H143.345V9.727H143.678C144.893 9.727 145.114 10.0581 145.114 11.4956V32.7151H151.193ZM153.846 32.7151H159.814V14.7005C159.814 12.932 159.15 12.2688 157.382 12.2688H153.845L153.846 32.7151ZM142.461 32.7151V12.2688H138.93C137.161 12.2688 136.498 12.932 136.498 14.7005V32.7151H142.461ZM165.559 20.9995C165.559 31.1677 158.265 38.5729 148.096 38.5729C138.038 38.5729 130.633 31.1677 130.633 20.9995C130.633 10.8314 137.927 3.42606 148.096 3.42606C158.264 3.31603 165.559 10.8314 165.559 20.9995ZM169.096 20.9995C169.096 8.95277 160.144 0 148.097 0C136.05 0 127.103 8.95376 127.103 21.0005C127.103 33.0472 136.056 42 148.103 42C160.15 41.89 169.102 32.9372 169.102 21.0005" fill="#003781"/>
</svg>
